<?xml version="1.0" encoding="iso-8859-1"?>
<!-- Generator: Adobe Illustrator 19.0.0, SVG Export Plug-In . SVG Version: 6.00 Build 0)  -->
<svg version="1.1" id="Capa_1" xmlns="http://www.w3.org/2000/svg" xmlns:xlink="http://www.w3.org/1999/xlink" x="0px" y="0px"
	 viewBox="0 0 512 512" style="enable-background:new 0 0 512 512;" xml:space="preserve">
<g>
	<g>
		<path d="M312.185,379.493c-4.28,0-7.749,3.469-7.749,7.749v20.145c0,4.279,3.468,7.749,7.749,7.749
			c4.28,0,7.749-3.469,7.749-7.749v-20.145C319.934,382.962,316.465,379.493,312.185,379.493z"/>
	</g>
</g>
<g>
	<g>
		<path d="M312.185,433.731c-4.28,0-7.749,3.469-7.749,7.749v20.145c0,4.279,3.468,7.749,7.749,7.749
			c4.28,0,7.749-3.469,7.749-7.749v-20.145C319.934,437.2,316.465,433.731,312.185,433.731z"/>
	</g>
</g>
<g>
	<g>
		<path d="M349.376,416.684h-20.145c-4.28,0-7.749,3.469-7.749,7.749c0,4.279,3.468,7.749,7.749,7.749h20.145
			c4.28,0,7.749-3.469,7.749-7.749C357.125,420.153,353.656,416.684,349.376,416.684z"/>
	</g>
</g>
<g>
	<g>
		<path d="M295.138,416.684h-20.145c-4.28,0-7.749,3.469-7.749,7.749c0,4.279,3.468,7.749,7.749,7.749h20.145
			c4.28,0,7.749-3.469,7.749-7.749C302.887,420.153,299.419,416.684,295.138,416.684z"/>
	</g>
</g>
<g>
	<g>
		<path d="M173.512,145.773l-16.315-3.308c-13.057-2.648-23.203-12.794-25.85-25.85l-3.308-16.316
			c-1.431-7.057-7.46-11.986-14.66-11.986c-7.201,0-13.229,4.929-14.659,11.986l-3.308,16.316
			c-2.647,13.056-12.793,23.202-25.85,25.85l-16.315,3.308c-7.057,1.431-11.987,7.459-11.987,14.66
			c0,7.201,4.929,13.23,11.987,14.661l16.315,3.308c13.057,2.647,23.203,12.793,25.85,25.85l3.308,16.315
			c1.431,7.057,7.458,11.986,14.659,11.986c7.2,0,13.229-4.929,14.66-11.986l3.308-16.316c2.647-13.056,12.793-23.202,25.85-25.85
			l16.315-3.308c7.057-1.431,11.987-7.459,11.987-14.66C185.499,153.232,180.569,147.204,173.512,145.773z M154.119,163.214
			c-19.172,3.888-34.072,18.787-37.96,37.959l-2.78,13.708l-2.779-13.708c-3.888-19.172-18.788-34.072-37.96-37.959l-13.708-2.781
			l13.708-2.778c19.173-3.888,34.072-18.788,37.96-37.96l2.781-13.708l2.778,13.708c3.888,19.172,18.787,34.072,37.96,37.96
			l13.708,2.78L154.119,163.214z"/>
	</g>
</g>
<g>
	<g>
		<path d="M33.111,221.751c-2.608-1.877-6.179-1.952-8.857-0.173c-3.025,2.01-4.267,6.044-2.85,9.402
			c1.233,2.919,4.153,4.859,7.339,4.778c3.246-0.082,6.141-2.233,7.167-5.31C36.959,227.301,35.807,223.691,33.111,221.751z"/>
	</g>
</g>
<g>
	<g>
		<path d="M87.69,268.132c-1.809-2.753-5.343-4.046-8.507-3.159c-3.061,0.857-5.316,3.541-5.639,6.704
			c-0.723,7.082,8.15,11.249,13.186,6.239C89.328,275.33,89.694,271.176,87.69,268.132z"/>
	</g>
</g>
<g>
	<g>
		<path d="M36.214,290.721c-3.513,0.769-6.111,3.95-6.111,7.557c0,3.159,1.999,6.071,4.939,7.215
			c3.207,1.249,6.971,0.186,9.025-2.582C48.239,297.293,43.08,289.216,36.214,290.721z"/>
	</g>
</g>
<g>
	<g>
		<path d="M221.699,468.716c-2.623-6.2-11.714-6.264-14.309,0c-1.268,3.059-0.407,6.703,2.118,8.855
			c2.415,2.058,5.932,2.426,8.721,0.922C221.701,476.618,223.15,472.351,221.699,468.716z"/>
	</g>
</g>
<g>
	<g>
		<path d="M503.957,8.043c-10.725-10.724-28.174-10.724-38.898,0l-45.944,45.944c-3.026,3.026-3.026,7.932,0,10.957
			c3.027,3.026,7.932,3.026,10.958,0l45.944-45.944c4.681-4.681,12.298-4.681,16.981,0c4.682,4.682,4.682,12.299,0,16.982
			L292.055,236.926l-16.982-16.981L409.155,85.864c3.026-3.026,3.026-7.932,0-10.957c-3.027-3.026-7.932-3.026-10.958,0
			L263.611,209.492c-10.612-6.621-24.79-5.333-34.008,3.884l-3.899,3.899c-5.196,5.195-8.056,12.102-8.056,19.45
			c0,0.152,0.008,0.302,0.011,0.454c-1.406-0.728-2.835-1.444-4.29-2.138c-37.624-17.946-59.51-7.725-71.245,4.012
			c-10.401,10.401-20.378,25.1-30.94,40.664C85.119,318.12,55.576,361.651,7.75,361.645c0,0,0,0-0.001,0
			c-3.133,0-5.959,1.888-7.159,4.782c-1.2,2.896-0.537,6.229,1.679,8.445l27.382,27.382c0.059,0.061,0.119,0.121,0.18,0.18
			l27.245,27.245c0.022,0.022,0.04,0.047,0.062,0.068c0.022,0.022,0.047,0.04,0.068,0.062l32.808,32.808
			c2.766,2.767,7.16,3.036,10.244,0.632l25.402-19.804c-8.136,18.852-12.222,35.917-12.505,37.123
			c-0.615,2.612,0.166,5.356,2.064,7.253l21.909,21.909c1.483,1.483,3.464,2.27,5.481,2.27c0.998,0,2.005-0.193,2.964-0.59
			c2.896-1.2,4.783-4.025,4.782-7.16c-0.004-40.363,31.182-67.932,64.884-91.713c3.497-2.467,4.331-7.301,1.864-10.798
			c-2.467-3.497-7.303-4.332-10.798-1.864c-32.441,22.889-62.764,49.279-69.879,87.236l-7.113-7.113
			c3.25-11.875,13.854-46.425,31.331-63.902c2.895-2.895,3.038-7.543,0.326-10.61c-2.711-3.067-7.34-3.497-10.57-0.979
			l-54.27,42.311l-22.552-22.552l15.836-15.836c3.026-3.026,3.026-7.932,0-10.957c-3.026-3.026-7.932-3.026-10.957,0l-15.835,15.835
			l-13.204-13.204c2.159-0.966,4.554-2.125,7.2-3.542c15.802-8.462,32.612-21.551,49.964-38.903c3.026-3.026,3.026-7.932,0-10.957
			c-3.026-3.026-7.932-3.026-10.957,0c-29.256,29.256-50.129,38.695-58.131,41.479l-12.631-12.631
			c45.944-8.747,75.166-51.8,99.144-87.13c10.138-14.938,19.715-29.048,29.076-38.409c11.134-11.134,27.592-12.163,48.968-3.079
			c-10.594,1.833-22.256,7.038-33.633,18.415c-3.026,3.026-3.026,7.932,0,10.957c3.026,3.026,7.932,3.026,10.958,0
			c21.177-21.177,43.242-14.79,54.488-9.124l-17.933,17.933c-3.026,3.026-3.026,7.932,0,10.957c1.513,1.513,3.496,2.27,5.479,2.27
			c1.983,0,3.966-0.756,5.479-2.27l17.895-17.895c1.658,3.308,3.389,7.535,4.48,12.356c3.494,15.436-1.069,29.599-13.564,42.094
			c-3.026,3.026-3.026,7.932,0,10.957c1.513,1.513,3.496,2.27,5.479,2.27c1.983,0,3.966-0.756,5.479-2.27
			c11.375-11.375,16.58-23.036,18.414-33.628c9.083,21.369,8.056,37.827-3.078,48.963c-8.362,8.362-20.527,16.887-32.27,24.902
			c-3.534,2.412-4.445,7.233-2.032,10.768c2.412,3.534,7.234,4.445,10.768,2.032c12.348-8.428,25.183-17.435,34.491-26.743
			c11.734-11.735,21.957-33.621,4.011-71.244c-0.696-1.459-1.414-2.893-2.145-4.303c0.153,0.002,0.307,0.011,0.46,0.011
			c7.044,0,14.089-2.681,19.451-8.043l3.899-3.9c9.215-9.216,10.503-23.393,3.881-34.007L503.957,46.94
			C514.681,36.216,514.681,18.767,503.957,8.043z M287.667,271.439l-3.898,3.899c-4.682,4.682-12.302,4.683-16.984,0l-30.123-30.122
			c-4.682-4.682-4.682-12.302,0-16.984l3.899-3.899c2.342-2.342,5.417-3.512,8.492-3.512c3.075,0,6.151,1.171,8.491,3.512
			l1.092,1.092l27.939,27.939l1.092,1.092C292.35,259.137,292.35,266.756,287.667,271.439z"/>
	</g>
</g>
<g>
</g>
<g>
</g>
<g>
</g>
<g>
</g>
<g>
</g>
<g>
</g>
<g>
</g>
<g>
</g>
<g>
</g>
<g>
</g>
<g>
</g>
<g>
</g>
<g>
</g>
<g>
</g>
<g>
</g>
</svg>
